<svg xmlns="http://www.w3.org/2000/svg" xmlns:xlink="http://www.w3.org/1999/xlink" width="100" zoomAndPan="magnify" viewBox="0 0 75 74.999997" height="100" preserveAspectRatio="xMidYMid meet" version="1.0"><defs><g/><clipPath id="be279bc675"><path d="M 7.5 8 L 66 8 L 66 67 L 7.5 67 Z M 7.5 8 " clip-rule="nonzero"/></clipPath><clipPath id="27d9cf3f65"><path d="M 9 8 L 67.5 8 L 67.5 67 L 9 67 Z M 9 8 " clip-rule="nonzero"/></clipPath><clipPath id="a2ccb81e23"><path d="M 7.5 7.5 L 67 7.5 L 67 67 L 7.5 67 Z M 7.5 7.5 " clip-rule="nonzero"/></clipPath><clipPath id="a6b6541fb2"><path d="M 8 8 L 67.5 8 L 67.5 67.34375 L 8 67.34375 Z M 8 8 " clip-rule="nonzero"/></clipPath></defs><g clip-path="url(#be279bc675)"><path fill="#358e9d" d="M 65.824219 37.414062 C 65.8125 43.441406 63.804688 49.417969 60.25 54.273438 C 56.863281 58.90625 52.097656 62.488281 46.703125 64.433594 C 41.097656 66.453125 34.890625 66.6875 29.160156 65.113281 C 23.609375 63.582031 18.574219 60.375 14.828125 55.996094 C 11.042969 51.566406 8.644531 46.03125 8.039062 40.234375 C 7.398438 34.039062 9.007812 27.664062 12.316406 22.410156 C 15.367188 17.554688 19.863281 13.667969 25.105469 11.335938 C 30.566406 8.914062 36.746094 8.246094 42.605469 9.429688 C 48.246094 10.5625 53.488281 13.421875 57.519531 17.53125 C 61.574219 21.664062 64.34375 26.984375 65.375 32.6875 C 65.671875 34.308594 65.824219 35.957031 65.824219 37.605469 C 65.824219 38.046875 65.839844 37.621094 65.824219 37.414062 C 65.8125 31.503906 64.140625 25.734375 60.789062 20.839844 C 57.417969 15.921875 52.535156 12.082031 46.945312 10.007812 C 41.152344 7.859375 34.6875 7.625 28.734375 9.363281 C 22.992188 11.039062 17.839844 14.515625 14.121094 19.21875 C 10.382812 23.929688 8.207031 29.75 7.910156 35.753906 C 7.628906 41.507812 8.828125 47.226562 11.710938 52.238281 C 14.660156 57.375 19.195312 61.5625 24.5625 64.085938 C 30.179688 66.726562 36.617188 67.472656 42.695312 66.222656 C 48.554688 65.023438 53.964844 61.972656 58.046875 57.59375 C 62.15625 53.203125 64.820312 47.550781 65.59375 41.585938 C 65.761719 40.261719 65.839844 38.933594 65.839844 37.59375 C 65.839844 37.386719 65.824219 36.964844 65.824219 37.414062 Z M 65.824219 37.414062 " fill-opacity="1" fill-rule="nonzero"/></g><g clip-path="url(#27d9cf3f65)"><path fill="#358e9d" d="M 44.808594 65.386719 C 39.050781 66.726562 32.972656 66.3125 27.472656 64.136719 C 22.128906 62.011719 17.46875 58.300781 14.222656 53.550781 C 10.757812 48.488281 8.839844 42.167969 9.210938 36.011719 C 9.574219 30.203125 11.738281 24.5625 15.316406 19.976562 C 22.671875 10.574219 35.457031 6.597656 46.84375 10.1875 C 52.265625 11.902344 57.132812 15.210938 60.699219 19.640625 C 64.5 24.34375 66.738281 30.214844 67.074219 36.242188 C 67.746094 48.191406 59.992188 59.640625 49.007812 64.058594 C 47.640625 64.601562 46.238281 65.039062 44.808594 65.386719 C 44.757812 65.398438 44.847656 66.015625 44.808594 66.03125 C 50.757812 64.601562 56.152344 61.34375 60.148438 56.691406 C 64.046875 52.148438 66.46875 46.402344 67.011719 40.441406 C 67.527344 34.75 66.507812 28.953125 63.882812 23.867188 C 61.125 18.523438 56.683594 14.128906 51.324219 11.386719 C 45.941406 8.617188 39.734375 7.613281 33.746094 8.539062 C 27.667969 9.480469 21.960938 12.367188 17.609375 16.730469 C 13.398438 20.96875 10.550781 26.492188 9.558594 32.390625 C 8.621094 37.980469 9.25 43.878906 11.453125 49.109375 C 13.785156 54.644531 17.867188 59.371094 22.992188 62.527344 C 28.144531 65.683594 34.25 67.1875 40.273438 66.726562 C 41.808594 66.609375 43.316406 66.363281 44.808594 66.015625 C 44.859375 66.015625 44.769531 65.398438 44.808594 65.386719 Z M 44.808594 65.386719 " fill-opacity="1" fill-rule="nonzero"/></g><g clip-path="url(#a2ccb81e23)"><path fill="#358e9d" d="M 51.246094 62.746094 C 45.851562 65.644531 39.554688 66.738281 33.5 65.902344 C 27.730469 65.101562 22.234375 62.589844 17.894531 58.703125 C 13.386719 54.683594 10.179688 49.25 8.828125 43.363281 C 7.511719 37.671875 7.949219 31.617188 10.050781 26.171875 C 12.175781 20.660156 15.972656 15.84375 20.855469 12.507812 C 26.070312 8.941406 32.546875 7.304688 38.832031 7.730469 C 44.640625 8.117188 50.28125 10.242188 54.890625 13.796875 C 59.695312 17.503906 63.261719 22.707031 65.039062 28.503906 C 66.753906 34.089844 66.726562 40.144531 65.015625 45.71875 C 63.289062 51.335938 59.863281 56.382812 55.265625 60.042969 C 53.964844 61.085938 52.5625 62.023438 51.09375 62.824219 C 50.695312 63.042969 51.066406 62.847656 51.246094 62.746094 C 56.515625 59.886719 60.855469 55.597656 63.609375 50.253906 C 66.378906 44.871094 67.449219 38.664062 66.597656 32.660156 C 65.722656 26.441406 62.8125 20.570312 58.394531 16.101562 C 54.132812 11.773438 48.53125 8.863281 42.554688 7.808594 C 36.554688 6.75 30.292969 7.613281 24.796875 10.242188 C 19.527344 12.765625 14.996094 16.589844 11.917969 21.574219 C 8.75 26.699219 7.203125 32.765625 7.550781 38.765625 C 7.910156 45.050781 10.347656 51.15625 14.390625 55.984375 C 18.292969 60.632812 23.625 63.996094 29.496094 65.527344 C 35.394531 67.074219 41.730469 66.726562 47.421875 64.535156 C 48.683594 64.046875 49.910156 63.464844 51.105469 62.824219 C 51.273438 62.746094 51.660156 62.527344 51.246094 62.746094 Z M 51.246094 62.746094 " fill-opacity="1" fill-rule="nonzero"/></g><g clip-path="url(#a6b6541fb2)"><path fill="#358e9d" d="M 16.140625 57.476562 C 12.160156 52.984375 9.613281 47.367188 8.902344 41.40625 C 8.222656 35.609375 9.277344 29.660156 11.957031 24.472656 C 14.800781 18.933594 19.527344 14.167969 25.195312 11.542969 C 30.550781 9.054688 36.628906 8.269531 42.453125 9.25 C 54.390625 11.269531 64.113281 20.761719 66.390625 32.660156 C 67.472656 38.328125 66.867188 44.277344 64.640625 49.597656 C 62.285156 55.25 58.125 60.078125 52.910156 63.300781 C 42.566406 69.660156 28.609375 68.257812 19.359375 60.59375 C 18.214844 59.628906 17.144531 58.585938 16.140625 57.476562 C 16.101562 57.441406 15.601562 57.824219 15.5625 57.789062 C 19.707031 62.410156 25.21875 65.65625 31.300781 66.96875 C 37.234375 68.257812 43.535156 67.652344 49.121094 65.257812 C 54.441406 62.964844 59.128906 59.269531 62.398438 54.476562 C 65.839844 49.441406 67.628906 43.351562 67.488281 37.257812 C 67.34375 31.117188 65.257812 25.089844 61.539062 20.195312 C 57.765625 15.226562 52.445312 11.515625 46.445312 9.738281 C 40.648438 8.011719 34.324219 8.128906 28.59375 10.085938 C 23.148438 11.953125 18.175781 15.351562 14.570312 19.847656 C 10.757812 24.601562 8.503906 30.523438 8.167969 36.617188 C 7.835938 42.746094 9.445312 48.902344 12.753906 54.066406 C 13.589844 55.378906 14.542969 56.617188 15.574219 57.773438 C 15.613281 57.824219 16.117188 57.441406 16.140625 57.476562 Z M 16.140625 57.476562 " fill-opacity="1" fill-rule="nonzero"/></g><g fill="#1d4e56" fill-opacity="1"><g transform="translate(16.335171, 31.068498)"><g><path d="M 0.3125 -12.625 C 4.476562 -12.644531 8.414062 -12.441406 12.125 -12.015625 L 12.4375 -12.015625 C 12.53125 -12.015625 12.632812 -11.910156 12.75 -11.703125 L 12.75 -11.609375 C 12.34375 -10.253906 11.128906 -9.707031 9.109375 -9.96875 C 8.835938 -9.96875 8.359375 -10.007812 7.671875 -10.09375 C 6.191406 -7.101562 5.195312 -3.441406 4.6875 0.890625 L 4.046875 1.171875 C 3.273438 -0.804688 2.976562 -2.769531 3.15625 -4.71875 C 3.332031 -6.664062 3.765625 -8.488281 4.453125 -10.1875 L 4.453125 -10.28125 C 3.992188 -10.332031 3.253906 -10.484375 2.234375 -10.734375 C 0.890625 -10.984375 0.179688 -11.578125 0.109375 -12.515625 Z M 0.3125 -12.625 "/></g></g><g transform="translate(28.714238, 31.068498)"><g><path d="M 1.3125 -8.046875 C 2.070312 -7.691406 2.453125 -7.238281 2.453125 -6.6875 L 2.453125 -6 C 3.210938 -6.8125 4.195312 -7.21875 5.40625 -7.21875 C 6.207031 -7.21875 6.910156 -6.890625 7.515625 -6.234375 C 7.617188 -5.972656 7.519531 -5.84375 7.21875 -5.84375 C 7.1875 -5.84375 7.035156 -5.875 6.765625 -5.9375 C 4.890625 -6.4375 3.460938 -5.5 2.484375 -3.125 C 1.960938 -1.320312 1.597656 -0.03125 1.390625 0.75 L 1.234375 0.8125 L 1.09375 0.8125 C -0.101562 0.53125 -0.554688 -0.40625 -0.265625 -2 C 0.441406 -3.5625 0.941406 -4.945312 1.234375 -6.15625 C 1.359375 -6.289062 1.460938 -6.617188 1.546875 -7.140625 C 1.265625 -7.460938 0.878906 -7.570312 0.390625 -7.46875 C -0.0859375 -7.375 -0.304688 -7.429688 -0.265625 -7.640625 C -0.222656 -7.859375 0 -7.96875 0.40625 -7.96875 C 0.757812 -8.019531 1.0625 -8.046875 1.3125 -8.046875 Z M 1.3125 -8.046875 "/></g></g><g transform="translate(36.450124, 31.068498)"><g><path d="M 6.46875 -1.046875 C 6.0625 -0.898438 5.660156 -0.859375 5.265625 -0.921875 C 4.878906 -0.984375 4.5625 -1.226562 4.3125 -1.65625 C 4.070312 -2.082031 4.03125 -2.734375 4.1875 -3.609375 L 4.140625 -3.609375 C 3.265625 -2.429688 2.457031 -1.859375 1.71875 -1.890625 C 0.988281 -1.929688 0.492188 -2.414062 0.234375 -3.34375 C 0.0976562 -3.84375 0.109375 -4.6875 0.265625 -5.875 C 0.429688 -7.070312 0.65625 -7.800781 0.9375 -8.0625 C 1.226562 -8.320312 1.539062 -8.265625 1.875 -7.890625 C 2.28125 -7.285156 2.257812 -5.664062 1.8125 -3.03125 L 1.828125 -2.9375 C 2.316406 -3.132812 2.820312 -3.453125 3.34375 -3.890625 C 3.875 -4.335938 4.300781 -5.050781 4.625 -6.03125 C 4.945312 -7.007812 5.210938 -7.582031 5.421875 -7.75 L 5.609375 -7.765625 C 6.265625 -7.878906 6.5 -7.320312 6.3125 -6.09375 C 5.894531 -3.71875 5.742188 -2.316406 5.859375 -1.890625 C 5.984375 -1.472656 6.1875 -1.191406 6.46875 -1.046875 Z M 6.46875 -1.046875 "/></g></g><g transform="translate(42.866456, 31.068498)"><g><path d="M 1.84375 -9.265625 L 1.90625 -9.265625 C 2.6875 -9.265625 3.078125 -8.941406 3.078125 -8.296875 L 3.046875 -7.796875 C 2.929688 -7.222656 2.8125 -6.625 2.6875 -6 L 2.75 -6 C 3.90625 -7.363281 4.929688 -8 5.828125 -7.90625 C 6.722656 -7.8125 7.289062 -7.191406 7.53125 -6.046875 C 7.65625 -5.671875 7.734375 -5.367188 7.765625 -5.140625 C 7.765625 -5.097656 7.75 -5.078125 7.71875 -5.078125 L 7.765625 -4.34375 C 7.765625 -4.050781 7.6875 -3.09375 7.53125 -1.46875 L 7.59375 -1.46875 C 7.601562 -1.082031 7.976562 -1.039062 8.71875 -1.34375 C 9.46875 -1.644531 9.546875 -1.492188 8.953125 -0.890625 C 8.359375 -0.296875 7.804688 0 7.296875 0 C 6.785156 0 6.332031 -0.242188 5.9375 -0.734375 C 5.488281 -1.492188 5.265625 -2.226562 5.265625 -2.9375 C 5.265625 -3.332031 5.382812 -4.535156 5.625 -6.546875 L 5.625 -6.65625 C 5.007812 -6.445312 4.363281 -6.09375 3.6875 -5.59375 C 3.019531 -5.09375 2.457031 -4.257812 2 -3.09375 C 1.539062 -1.9375 1.1875 -1.253906 0.9375 -1.046875 L 0.6875 -1.046875 C -0.101562 -0.941406 -0.347656 -1.640625 -0.046875 -3.140625 C 0.585938 -5.640625 1.035156 -7.265625 1.296875 -8.015625 C 1.566406 -8.773438 1.75 -9.191406 1.84375 -9.265625 Z M 1.84375 -9.265625 "/></g></g><g transform="translate(52.053852, 31.068498)"><g><path d="M 1.09375 -1.890625 C 2.15625 -2.421875 2.925781 -3.066406 3.40625 -3.828125 C 3.882812 -4.597656 4.125 -5.046875 4.125 -5.171875 L 4.140625 -5.375 L 4.0625 -5.375 C 2.863281 -5.007812 2.035156 -4.382812 1.578125 -3.5 C 1.117188 -2.625 0.957031 -2.085938 1.09375 -1.890625 Z M 4.609375 -3.734375 C 3.273438 -1.691406 2.210938 -0.671875 1.421875 -0.671875 L 1.296875 -0.625 C 1.203125 -0.65625 1.132812 -0.671875 1.09375 -0.671875 C 0.601562 -0.671875 0.203125 -1.101562 -0.109375 -1.96875 C -0.429688 -2.84375 0.0859375 -4 1.453125 -5.4375 C 2.984375 -6.507812 3.859375 -7.046875 4.078125 -7.046875 C 4.710938 -7.265625 5.054688 -7.375 5.109375 -7.375 C 5.984375 -7.46875 6.378906 -6.875 6.296875 -5.59375 L 6.3125 -3 C 6.195312 -1.675781 5.796875 -0.269531 5.109375 1.21875 C 4.421875 2.71875 3.566406 3.523438 2.546875 3.640625 C 1.523438 3.765625 0.710938 3.660156 0.109375 3.328125 C -0.492188 3.003906 -0.785156 2.632812 -0.765625 2.21875 C -0.753906 1.800781 -0.488281 1.773438 0.03125 2.140625 C 0.5625 2.503906 1.113281 2.695312 1.6875 2.71875 C 2.269531 2.738281 2.785156 2.367188 3.234375 1.609375 C 3.691406 0.847656 4.023438 -0.15625 4.234375 -1.40625 C 4.410156 -2.394531 4.535156 -3.171875 4.609375 -3.734375 Z M 4.609375 -3.734375 "/></g></g></g><g fill="#1d4e56" fill-opacity="1"><g transform="translate(15.697386, 43.736218)"><g><path d="M 1.859375 -7.5625 C 2.234375 -9.488281 2.398438 -10.628906 2.359375 -10.984375 C 2.273438 -11.671875 2.003906 -12.132812 1.546875 -12.375 L 1.53125 -12.453125 C 2.664062 -12.648438 3.515625 -12.445312 4.078125 -11.84375 C 4.191406 -11.707031 4.253906 -11.582031 4.265625 -11.46875 L 4.390625 -10.515625 C 4.472656 -9.816406 4.398438 -8.71875 4.171875 -7.21875 C 5.804688 -6.976562 7.070312 -6.820312 7.96875 -6.75 C 8.488281 -9.320312 8.722656 -10.816406 8.671875 -11.234375 C 8.578125 -11.921875 8.304688 -12.390625 7.859375 -12.640625 L 7.84375 -12.703125 C 8.988281 -12.898438 9.835938 -12.703125 10.390625 -12.109375 C 10.503906 -11.972656 10.566406 -11.84375 10.578125 -11.71875 L 10.703125 -10.765625 C 10.785156 -10.078125 10.710938 -8.992188 10.484375 -7.515625 C 10.515625 -7.566406 10.535156 -7.617188 10.546875 -7.671875 L 10.609375 -7.6875 C 10.847656 -6.5625 10.75 -5.6875 10.3125 -5.0625 C 10.21875 -4.9375 10.125 -4.859375 10.03125 -4.828125 L 10 -4.828125 C 9.90625 -4.398438 9.8125 -3.953125 9.71875 -3.484375 C 9.09375 -1.296875 8.347656 0.160156 7.484375 0.890625 C 6.617188 1.628906 6.332031 1.273438 6.625 -0.171875 C 6.9375 -1.753906 7.234375 -3.1875 7.515625 -4.46875 C 6.546875 -4.5 5.289062 -4.628906 3.75 -4.859375 C 3.632812 -4.347656 3.570312 -4.035156 3.5625 -3.921875 C 2.800781 -1.140625 2.15625 0.703125 1.625 1.609375 C 1.09375 2.515625 0.59375 2.820312 0.125 2.53125 L 0.484375 0.859375 C 1.035156 -1.941406 1.347656 -3.988281 1.421875 -5.28125 C 0.484375 -5.65625 -0.132812 -6.085938 -0.4375 -6.578125 C -0.75 -7.078125 -0.898438 -7.566406 -0.890625 -8.046875 L 0.453125 -7.78125 C 0.941406 -7.695312 1.410156 -7.625 1.859375 -7.5625 Z M 1.859375 -7.5625 "/></g></g><g transform="translate(26.699169, 43.736218)"><g><path d="M 6.46875 -1.046875 C 6.0625 -0.898438 5.660156 -0.859375 5.265625 -0.921875 C 4.878906 -0.984375 4.5625 -1.226562 4.3125 -1.65625 C 4.070312 -2.082031 4.03125 -2.734375 4.1875 -3.609375 L 4.140625 -3.609375 C 3.265625 -2.429688 2.457031 -1.859375 1.71875 -1.890625 C 0.988281 -1.929688 0.492188 -2.414062 0.234375 -3.34375 C 0.0976562 -3.84375 0.109375 -4.6875 0.265625 -5.875 C 0.429688 -7.070312 0.65625 -7.800781 0.9375 -8.0625 C 1.226562 -8.320312 1.539062 -8.265625 1.875 -7.890625 C 2.28125 -7.285156 2.257812 -5.664062 1.8125 -3.03125 L 1.828125 -2.9375 C 2.316406 -3.132812 2.820312 -3.453125 3.34375 -3.890625 C 3.875 -4.335938 4.300781 -5.050781 4.625 -6.03125 C 4.945312 -7.007812 5.210938 -7.582031 5.421875 -7.75 L 5.609375 -7.765625 C 6.265625 -7.878906 6.5 -7.320312 6.3125 -6.09375 C 5.894531 -3.71875 5.742188 -2.316406 5.859375 -1.890625 C 5.984375 -1.472656 6.1875 -1.191406 6.46875 -1.046875 Z M 6.46875 -1.046875 "/></g></g><g transform="translate(33.115501, 43.736218)"><g><path d="M 0.90625 3.484375 C 0.300781 2.359375 0.445312 2.019531 1.34375 2.46875 C 2.238281 2.914062 2.941406 2.925781 3.453125 2.5 C 3.972656 2.082031 4.625 0.0507812 5.40625 -3.59375 L 5.359375 -3.578125 C 4.273438 -2.148438 3.285156 -1.457031 2.390625 -1.5 C 1.492188 -1.539062 0.890625 -2.125 0.578125 -3.25 C 0.421875 -3.863281 0.441406 -4.894531 0.640625 -6.34375 C 0.835938 -7.800781 1.109375 -8.6875 1.453125 -9 C 1.796875 -9.3125 2.175781 -9.238281 2.59375 -8.78125 C 3.082031 -8.039062 3.054688 -6.070312 2.515625 -2.875 L 2.515625 -2.75 C 3.117188 -2.988281 3.742188 -3.378906 4.390625 -3.921875 C 5.035156 -4.460938 5.550781 -5.328125 5.9375 -6.515625 C 6.332031 -7.710938 6.648438 -8.414062 6.890625 -8.625 L 7.140625 -8.640625 C 7.921875 -8.773438 8.203125 -8.09375 7.984375 -6.59375 C 7.234375 -0.40625 6.019531 3.097656 4.34375 3.921875 C 2.664062 4.753906 1.519531 4.609375 0.90625 3.484375 Z M 5.1875 -10.5625 C 5.695312 -9.5 5.675781 -8.96875 5.125 -8.96875 C 4.582031 -8.96875 3.867188 -9.5 2.984375 -10.5625 C 2.109375 -11.625 2.128906 -12.15625 3.046875 -12.15625 C 3.960938 -12.15625 4.675781 -11.625 5.1875 -10.5625 Z M 5.1875 -10.5625 "/></g></g><g transform="translate(40.876129, 43.736218)"><g><path d="M 1.84375 -9.265625 L 1.90625 -9.265625 C 2.6875 -9.265625 3.078125 -8.941406 3.078125 -8.296875 L 3.046875 -7.796875 C 2.929688 -7.222656 2.8125 -6.625 2.6875 -6 L 2.75 -6 C 3.90625 -7.363281 4.929688 -8 5.828125 -7.90625 C 6.722656 -7.8125 7.289062 -7.191406 7.53125 -6.046875 C 7.65625 -5.671875 7.734375 -5.367188 7.765625 -5.140625 C 7.765625 -5.097656 7.75 -5.078125 7.71875 -5.078125 L 7.765625 -4.34375 C 7.765625 -4.050781 7.6875 -3.09375 7.53125 -1.46875 L 7.59375 -1.46875 C 7.601562 -1.082031 7.976562 -1.039062 8.71875 -1.34375 C 9.46875 -1.644531 9.546875 -1.492188 8.953125 -0.890625 C 8.359375 -0.296875 7.804688 0 7.296875 0 C 6.785156 0 6.332031 -0.242188 5.9375 -0.734375 C 5.488281 -1.492188 5.265625 -2.226562 5.265625 -2.9375 C 5.265625 -3.332031 5.382812 -4.535156 5.625 -6.546875 L 5.625 -6.65625 C 5.007812 -6.445312 4.363281 -6.09375 3.6875 -5.59375 C 3.019531 -5.09375 2.457031 -4.257812 2 -3.09375 C 1.539062 -1.9375 1.1875 -1.253906 0.9375 -1.046875 L 0.6875 -1.046875 C -0.101562 -0.941406 -0.347656 -1.640625 -0.046875 -3.140625 C 0.585938 -5.640625 1.035156 -7.265625 1.296875 -8.015625 C 1.566406 -8.773438 1.75 -9.191406 1.84375 -9.265625 Z M 1.84375 -9.265625 "/></g></g><g transform="translate(50.063524, 43.736218)"><g><path d="M 2.515625 -12.75 C 3.503906 -13.039062 4 -12.863281 4 -12.21875 L 4 -12.078125 C 3.726562 -10.316406 3.289062 -8.289062 2.6875 -6 L 2.75 -6 C 3.90625 -7.363281 4.929688 -8 5.828125 -7.90625 C 6.722656 -7.8125 7.289062 -7.191406 7.53125 -6.046875 C 7.65625 -5.671875 7.734375 -5.367188 7.765625 -5.140625 C 7.765625 -5.097656 7.75 -5.078125 7.71875 -5.078125 L 7.765625 -4.34375 C 7.765625 -4.050781 7.6875 -3.09375 7.53125 -1.46875 L 7.59375 -1.46875 C 7.601562 -1.082031 7.976562 -1.039062 8.71875 -1.34375 C 9.46875 -1.644531 9.546875 -1.492188 8.953125 -0.890625 C 8.359375 -0.296875 7.804688 0 7.296875 0 C 6.785156 0 6.332031 -0.242188 5.9375 -0.734375 C 5.488281 -1.492188 5.265625 -2.226562 5.265625 -2.9375 C 5.265625 -3.332031 5.382812 -4.535156 5.625 -6.546875 L 5.625 -6.65625 C 5.007812 -6.445312 4.363281 -6.09375 3.6875 -5.59375 C 3.019531 -5.09375 2.457031 -4.257812 2 -3.09375 C 1.539062 -1.9375 1.1875 -1.253906 0.9375 -1.046875 L 0.6875 -1.046875 C -0.101562 -0.941406 -0.347656 -1.640625 -0.046875 -3.140625 C 0.585938 -5.640625 1.128906 -7.765625 1.578125 -9.515625 C 2.023438 -11.265625 2.335938 -12.34375 2.515625 -12.75 Z M 2.515625 -12.75 "/></g></g></g><g fill="#1d4e56" fill-opacity="1"><g transform="translate(28.417255, 53.63577)"><g><path d="M 2.1875 -1.859375 C 2.382812 -1.773438 2.539062 -1.660156 2.65625 -1.515625 C 2.769531 -1.378906 2.828125 -1.21875 2.828125 -1.03125 C 2.828125 -0.675781 2.707031 -0.414062 2.46875 -0.25 C 2.238281 -0.0820312 1.953125 0 1.609375 0 L 0.484375 0 L 0.484375 -3.578125 L 1.46875 -3.578125 C 1.84375 -3.578125 2.128906 -3.5 2.328125 -3.34375 C 2.535156 -3.1875 2.640625 -2.960938 2.640625 -2.671875 C 2.640625 -2.484375 2.597656 -2.320312 2.515625 -2.1875 C 2.441406 -2.050781 2.332031 -1.941406 2.1875 -1.859375 Z M 1.0625 -2.046875 L 1.5625 -2.046875 C 1.726562 -2.046875 1.851562 -2.09375 1.9375 -2.1875 C 2.019531 -2.28125 2.0625 -2.398438 2.0625 -2.546875 C 2.0625 -2.703125 2.007812 -2.816406 1.90625 -2.890625 C 1.800781 -2.972656 1.660156 -3.015625 1.484375 -3.015625 L 1.0625 -3.015625 Z M 1.578125 -0.53125 C 1.773438 -0.53125 1.929688 -0.570312 2.046875 -0.65625 C 2.171875 -0.738281 2.234375 -0.859375 2.234375 -1.015625 C 2.234375 -1.191406 2.164062 -1.316406 2.03125 -1.390625 C 1.894531 -1.460938 1.734375 -1.5 1.546875 -1.5 L 1.0625 -1.5 L 1.0625 -0.53125 Z M 1.578125 -0.53125 "/></g></g></g><g fill="#1d4e56" fill-opacity="1"><g transform="translate(31.504271, 53.63577)"><g><path d="M 0.203125 -1.0625 C 0.203125 -1.269531 0.25 -1.457031 0.34375 -1.625 C 0.445312 -1.789062 0.585938 -1.921875 0.765625 -2.015625 C 0.941406 -2.117188 1.144531 -2.171875 1.375 -2.171875 C 1.601562 -2.171875 1.800781 -2.117188 1.96875 -2.015625 C 2.144531 -1.921875 2.28125 -1.789062 2.375 -1.625 C 2.46875 -1.457031 2.515625 -1.269531 2.515625 -1.0625 C 2.515625 -0.851562 2.46875 -0.660156 2.375 -0.484375 C 2.28125 -0.316406 2.144531 -0.1875 1.96875 -0.09375 C 1.800781 0 1.601562 0.046875 1.375 0.046875 C 1.144531 0.046875 0.941406 0.00390625 0.765625 -0.078125 C 0.585938 -0.171875 0.445312 -0.300781 0.34375 -0.46875 C 0.25 -0.632812 0.203125 -0.832031 0.203125 -1.0625 Z M 0.765625 -1.0625 C 0.765625 -0.875 0.820312 -0.710938 0.9375 -0.578125 C 1.050781 -0.453125 1.191406 -0.390625 1.359375 -0.390625 C 1.535156 -0.390625 1.679688 -0.453125 1.796875 -0.578125 C 1.910156 -0.703125 1.96875 -0.863281 1.96875 -1.0625 C 1.96875 -1.25 1.910156 -1.40625 1.796875 -1.53125 C 1.679688 -1.65625 1.535156 -1.71875 1.359375 -1.71875 C 1.191406 -1.71875 1.050781 -1.648438 0.9375 -1.515625 C 0.820312 -1.390625 0.765625 -1.238281 0.765625 -1.0625 Z M 0.765625 -1.0625 "/></g></g></g><g fill="#1d4e56" fill-opacity="1"><g transform="translate(34.223784, 53.63577)"><g><path d="M 0.203125 -1.0625 C 0.203125 -1.269531 0.25 -1.457031 0.34375 -1.625 C 0.445312 -1.789062 0.585938 -1.921875 0.765625 -2.015625 C 0.941406 -2.117188 1.144531 -2.171875 1.375 -2.171875 C 1.601562 -2.171875 1.800781 -2.117188 1.96875 -2.015625 C 2.144531 -1.921875 2.28125 -1.789062 2.375 -1.625 C 2.46875 -1.457031 2.515625 -1.269531 2.515625 -1.0625 C 2.515625 -0.851562 2.46875 -0.660156 2.375 -0.484375 C 2.28125 -0.316406 2.144531 -0.1875 1.96875 -0.09375 C 1.800781 0 1.601562 0.046875 1.375 0.046875 C 1.144531 0.046875 0.941406 0.00390625 0.765625 -0.078125 C 0.585938 -0.171875 0.445312 -0.300781 0.34375 -0.46875 C 0.25 -0.632812 0.203125 -0.832031 0.203125 -1.0625 Z M 0.765625 -1.0625 C 0.765625 -0.875 0.820312 -0.710938 0.9375 -0.578125 C 1.050781 -0.453125 1.191406 -0.390625 1.359375 -0.390625 C 1.535156 -0.390625 1.679688 -0.453125 1.796875 -0.578125 C 1.910156 -0.703125 1.96875 -0.863281 1.96875 -1.0625 C 1.96875 -1.25 1.910156 -1.40625 1.796875 -1.53125 C 1.679688 -1.65625 1.535156 -1.71875 1.359375 -1.71875 C 1.191406 -1.71875 1.050781 -1.648438 0.9375 -1.515625 C 0.820312 -1.390625 0.765625 -1.238281 0.765625 -1.0625 Z M 0.765625 -1.0625 "/></g></g></g><g fill="#1d4e56" fill-opacity="1"><g transform="translate(36.943298, 53.63577)"><g><path d="M 1.171875 -0.9375 L 0.921875 -0.75 L 0.921875 0 L 0.375 0 L 0.375 -3.828125 L 0.921875 -3.828125 L 0.921875 -1.328125 L 1.96875 -2.125 L 2.296875 -1.828125 L 1.546875 -1.234375 L 2.390625 0 L 1.75 0 Z M 1.171875 -0.9375 "/></g></g></g><g fill="#1d4e56" fill-opacity="1"><g transform="translate(39.481512, 53.63577)"><g><path d="M 0.921875 -2.078125 L 0.921875 0 L 0.375 0 L 0.375 -2.078125 Z M 0.359375 -2.8125 C 0.359375 -2.894531 0.390625 -2.960938 0.453125 -3.015625 C 0.523438 -3.078125 0.597656 -3.109375 0.671875 -3.109375 C 0.753906 -3.109375 0.828125 -3.078125 0.890625 -3.015625 C 0.953125 -2.960938 0.984375 -2.894531 0.984375 -2.8125 C 0.984375 -2.726562 0.953125 -2.660156 0.890625 -2.609375 C 0.828125 -2.554688 0.753906 -2.53125 0.671875 -2.53125 C 0.597656 -2.53125 0.523438 -2.554688 0.453125 -2.609375 C 0.390625 -2.660156 0.359375 -2.726562 0.359375 -2.8125 Z M 0.359375 -2.8125 "/></g></g></g><g fill="#1d4e56" fill-opacity="1"><g transform="translate(40.784915, 53.63577)"><g><path d="M 1.734375 -2.15625 C 1.921875 -2.15625 2.078125 -2.097656 2.203125 -1.984375 C 2.335938 -1.867188 2.40625 -1.722656 2.40625 -1.546875 L 2.40625 0 L 1.859375 0 L 1.859375 -1.34375 C 1.859375 -1.445312 1.828125 -1.53125 1.765625 -1.59375 C 1.710938 -1.65625 1.628906 -1.691406 1.515625 -1.703125 C 1.335938 -1.703125 1.191406 -1.628906 1.078125 -1.484375 C 0.972656 -1.335938 0.921875 -1.148438 0.921875 -0.921875 L 0.921875 0 L 0.375 0 L 0.375 -2.078125 L 0.875 -2.078125 L 0.90625 -1.703125 C 0.988281 -1.847656 1.097656 -1.957031 1.234375 -2.03125 C 1.378906 -2.113281 1.546875 -2.15625 1.734375 -2.15625 Z M 1.734375 -2.15625 "/></g></g></g><g fill="#1d4e56" fill-opacity="1"><g transform="translate(43.573028, 53.63577)"><g><path d="M 2.625 -2.078125 L 2.625 0.015625 C 2.625 0.203125 2.570312 0.375 2.46875 0.53125 C 2.363281 0.6875 2.21875 0.804688 2.03125 0.890625 C 1.851562 0.984375 1.644531 1.03125 1.40625 1.03125 C 1.1875 1.03125 1 0.992188 0.84375 0.921875 C 0.695312 0.859375 0.546875 0.757812 0.390625 0.625 L 0.71875 0.25 C 0.820312 0.34375 0.925781 0.414062 1.03125 0.46875 C 1.144531 0.519531 1.269531 0.546875 1.40625 0.546875 C 1.601562 0.546875 1.765625 0.492188 1.890625 0.390625 C 2.015625 0.296875 2.078125 0.164062 2.078125 0 L 2.078125 -0.34375 C 2.003906 -0.226562 1.894531 -0.132812 1.75 -0.0625 C 1.613281 0.0078125 1.445312 0.046875 1.25 0.046875 C 1.0625 0.046875 0.882812 0 0.71875 -0.09375 C 0.5625 -0.1875 0.4375 -0.316406 0.34375 -0.484375 C 0.25 -0.648438 0.203125 -0.835938 0.203125 -1.046875 C 0.203125 -1.253906 0.25 -1.441406 0.34375 -1.609375 C 0.445312 -1.785156 0.582031 -1.921875 0.75 -2.015625 C 0.914062 -2.117188 1.09375 -2.171875 1.28125 -2.171875 C 1.457031 -2.171875 1.613281 -2.140625 1.75 -2.078125 C 1.894531 -2.015625 2.003906 -1.9375 2.078125 -1.84375 L 2.125 -2.078125 Z M 1.421875 -0.390625 C 1.578125 -0.390625 1.710938 -0.429688 1.828125 -0.515625 C 1.941406 -0.597656 2.023438 -0.703125 2.078125 -0.828125 L 2.078125 -1.28125 C 2.023438 -1.414062 1.941406 -1.519531 1.828125 -1.59375 C 1.710938 -1.675781 1.578125 -1.71875 1.421875 -1.71875 C 1.234375 -1.71875 1.078125 -1.65625 0.953125 -1.53125 C 0.828125 -1.40625 0.765625 -1.25 0.765625 -1.0625 C 0.765625 -0.9375 0.789062 -0.820312 0.84375 -0.71875 C 0.90625 -0.625 0.984375 -0.546875 1.078125 -0.484375 C 1.179688 -0.421875 1.296875 -0.390625 1.421875 -0.390625 Z M 1.421875 -0.390625 "/></g></g></g><g fill="#1d4e56" fill-opacity="1"><g transform="translate(16.869106, 57.719093)"><g><path d="M 4.09375 -3.703125 L 4.09375 0 L 3.53125 0 L 3.53125 -2.0625 L 2.28125 -0.296875 L 2.265625 -0.296875 L 1.046875 -1.984375 L 1.046875 0 L 0.484375 0 L 0.484375 -3.703125 L 0.5 -3.703125 L 2.28125 -1.171875 Z M 4.09375 -3.703125 "/></g></g></g><g fill="#1d4e56" fill-opacity="1"><g transform="translate(21.450627, 57.719093)"><g><path d="M 0.203125 -1.0625 C 0.203125 -1.269531 0.25 -1.457031 0.34375 -1.625 C 0.445312 -1.789062 0.585938 -1.921875 0.765625 -2.015625 C 0.941406 -2.117188 1.144531 -2.171875 1.375 -2.171875 C 1.601562 -2.171875 1.800781 -2.117188 1.96875 -2.015625 C 2.144531 -1.921875 2.28125 -1.789062 2.375 -1.625 C 2.46875 -1.457031 2.515625 -1.269531 2.515625 -1.0625 C 2.515625 -0.851562 2.46875 -0.660156 2.375 -0.484375 C 2.28125 -0.316406 2.144531 -0.1875 1.96875 -0.09375 C 1.800781 0 1.601562 0.046875 1.375 0.046875 C 1.144531 0.046875 0.941406 0.00390625 0.765625 -0.078125 C 0.585938 -0.171875 0.445312 -0.300781 0.34375 -0.46875 C 0.25 -0.632812 0.203125 -0.832031 0.203125 -1.0625 Z M 0.765625 -1.0625 C 0.765625 -0.875 0.820312 -0.710938 0.9375 -0.578125 C 1.050781 -0.453125 1.191406 -0.390625 1.359375 -0.390625 C 1.535156 -0.390625 1.679688 -0.453125 1.796875 -0.578125 C 1.910156 -0.703125 1.96875 -0.863281 1.96875 -1.0625 C 1.96875 -1.25 1.910156 -1.40625 1.796875 -1.53125 C 1.679688 -1.65625 1.535156 -1.71875 1.359375 -1.71875 C 1.191406 -1.71875 1.050781 -1.648438 0.9375 -1.515625 C 0.820312 -1.390625 0.765625 -1.238281 0.765625 -1.0625 Z M 1.09375 0.515625 C 1.09375 0.441406 1.117188 0.378906 1.171875 0.328125 C 1.234375 0.273438 1.300781 0.25 1.375 0.25 C 1.4375 0.25 1.492188 0.273438 1.546875 0.328125 C 1.609375 0.378906 1.640625 0.441406 1.640625 0.515625 C 1.640625 0.585938 1.613281 0.644531 1.5625 0.6875 C 1.507812 0.738281 1.445312 0.765625 1.375 0.765625 C 1.300781 0.765625 1.234375 0.738281 1.171875 0.6875 C 1.117188 0.644531 1.09375 0.585938 1.09375 0.515625 Z M 1.09375 0.515625 "/></g></g></g><g fill="#1d4e56" fill-opacity="1"><g transform="translate(24.17014, 57.719093)"><g><path d="M 0.921875 -2.078125 L 0.921875 0 L 0.375 0 L 0.375 -2.078125 Z M 0.359375 -2.8125 C 0.359375 -2.894531 0.390625 -2.960938 0.453125 -3.015625 C 0.523438 -3.078125 0.597656 -3.109375 0.671875 -3.109375 C 0.753906 -3.109375 0.828125 -3.078125 0.890625 -3.015625 C 0.953125 -2.960938 0.984375 -2.894531 0.984375 -2.8125 C 0.984375 -2.726562 0.953125 -2.660156 0.890625 -2.609375 C 0.828125 -2.554688 0.753906 -2.53125 0.671875 -2.53125 C 0.597656 -2.53125 0.523438 -2.554688 0.453125 -2.609375 C 0.390625 -2.660156 0.359375 -2.726562 0.359375 -2.8125 Z M 0.359375 -2.8125 "/></g></g></g><g fill="#1d4e56" fill-opacity="1"><g transform="translate(25.473544, 57.719093)"><g/></g></g><g fill="#1d4e56" fill-opacity="1"><g transform="translate(27.041551, 57.719093)"><g><path d="M 1.0625 -3.578125 L 1.0625 -0.546875 L 2.828125 -0.546875 L 2.828125 0 L 0.484375 0 L 0.484375 -3.578125 Z M 1.0625 -3.578125 "/></g></g></g><g fill="#1d4e56" fill-opacity="1"><g transform="translate(30.128567, 57.719093)"><g><path d="M 2.375 -2.078125 L 2.375 0 L 1.875 0 L 1.84375 -0.375 C 1.769531 -0.226562 1.660156 -0.113281 1.515625 -0.03125 C 1.378906 0.0507812 1.222656 0.09375 1.046875 0.09375 C 0.859375 0.09375 0.695312 0.0351562 0.5625 -0.078125 C 0.4375 -0.203125 0.375 -0.351562 0.375 -0.53125 L 0.375 -2.078125 L 0.921875 -2.078125 L 0.921875 -0.734375 C 0.929688 -0.503906 1.046875 -0.382812 1.265625 -0.375 C 1.421875 -0.375 1.550781 -0.445312 1.65625 -0.59375 C 1.769531 -0.75 1.828125 -0.9375 1.828125 -1.15625 L 1.828125 -2.078125 Z M 1.578125 -2.4375 L 1.234375 -2.4375 L 1.625 -3.09375 L 2.234375 -3.09375 Z M 1.578125 -2.4375 "/></g></g></g><g fill="#1d4e56" fill-opacity="1"><g transform="translate(32.88238, 57.719093)"><g><path d="M 2.09375 -0.1875 C 2 -0.113281 1.882812 -0.0546875 1.75 -0.015625 C 1.625 0.0234375 1.492188 0.046875 1.359375 0.046875 C 1.128906 0.046875 0.925781 0.00390625 0.75 -0.078125 C 0.570312 -0.171875 0.4375 -0.296875 0.34375 -0.453125 C 0.25 -0.617188 0.203125 -0.816406 0.203125 -1.046875 C 0.203125 -1.265625 0.253906 -1.453125 0.359375 -1.609375 C 0.460938 -1.773438 0.597656 -1.898438 0.765625 -1.984375 C 0.929688 -2.078125 1.113281 -2.125 1.3125 -2.125 C 1.632812 -2.125 1.898438 -2.035156 2.109375 -1.859375 L 1.84375 -1.5 C 1.78125 -1.550781 1.707031 -1.59375 1.625 -1.625 C 1.539062 -1.664062 1.453125 -1.6875 1.359375 -1.6875 C 1.191406 -1.6875 1.046875 -1.625 0.921875 -1.5 C 0.804688 -1.375 0.75 -1.222656 0.75 -1.046875 C 0.75 -0.859375 0.8125 -0.703125 0.9375 -0.578125 C 1.0625 -0.453125 1.21875 -0.390625 1.40625 -0.390625 C 1.570312 -0.390625 1.707031 -0.4375 1.8125 -0.53125 Z M 2.09375 -0.1875 "/></g></g></g><g fill="#1d4e56" fill-opacity="1"><g transform="translate(35.160888, 57.719093)"><g/></g></g><g fill="#1d4e56" fill-opacity="1"><g transform="translate(36.728895, 57.719093)"><g><path d="M 1.1875 -1.328125 L 1.1875 -0.84375 L 0.265625 -0.84375 L 0.265625 -1.328125 Z M 1.1875 -1.328125 "/></g></g></g><g fill="#1d4e56" fill-opacity="1"><g transform="translate(38.223399, 57.719093)"><g/></g></g><g fill="#1d4e56" fill-opacity="1"><g transform="translate(39.791406, 57.719093)"><g><path d="M 4.09375 -3.703125 L 4.09375 0 L 3.53125 0 L 3.53125 -2.0625 L 2.28125 -0.296875 L 2.265625 -0.296875 L 1.046875 -1.984375 L 1.046875 0 L 0.484375 0 L 0.484375 -3.703125 L 0.5 -3.703125 L 2.28125 -1.171875 Z M 4.09375 -3.703125 "/></g></g></g><g fill="#1d4e56" fill-opacity="1"><g transform="translate(44.372926, 57.719093)"><g><path d="M 0.203125 -1.0625 C 0.203125 -1.269531 0.25 -1.457031 0.34375 -1.625 C 0.445312 -1.789062 0.585938 -1.921875 0.765625 -2.015625 C 0.941406 -2.117188 1.144531 -2.171875 1.375 -2.171875 C 1.601562 -2.171875 1.800781 -2.117188 1.96875 -2.015625 C 2.144531 -1.921875 2.28125 -1.789062 2.375 -1.625 C 2.46875 -1.457031 2.515625 -1.269531 2.515625 -1.0625 C 2.515625 -0.851562 2.46875 -0.660156 2.375 -0.484375 C 2.28125 -0.316406 2.144531 -0.1875 1.96875 -0.09375 C 1.800781 0 1.601562 0.046875 1.375 0.046875 C 1.144531 0.046875 0.941406 0.00390625 0.765625 -0.078125 C 0.585938 -0.171875 0.445312 -0.300781 0.34375 -0.46875 C 0.25 -0.632812 0.203125 -0.832031 0.203125 -1.0625 Z M 0.765625 -1.0625 C 0.765625 -0.875 0.820312 -0.710938 0.9375 -0.578125 C 1.050781 -0.453125 1.191406 -0.390625 1.359375 -0.390625 C 1.535156 -0.390625 1.679688 -0.453125 1.796875 -0.578125 C 1.910156 -0.703125 1.96875 -0.863281 1.96875 -1.0625 C 1.96875 -1.25 1.910156 -1.40625 1.796875 -1.53125 C 1.679688 -1.65625 1.535156 -1.71875 1.359375 -1.71875 C 1.191406 -1.71875 1.050781 -1.648438 0.9375 -1.515625 C 0.820312 -1.390625 0.765625 -1.238281 0.765625 -1.0625 Z M 1.09375 0.515625 C 1.09375 0.441406 1.117188 0.378906 1.171875 0.328125 C 1.234375 0.273438 1.300781 0.25 1.375 0.25 C 1.4375 0.25 1.492188 0.273438 1.546875 0.328125 C 1.609375 0.378906 1.640625 0.441406 1.640625 0.515625 C 1.640625 0.585938 1.613281 0.644531 1.5625 0.6875 C 1.507812 0.738281 1.445312 0.765625 1.375 0.765625 C 1.300781 0.765625 1.234375 0.738281 1.171875 0.6875 C 1.117188 0.644531 1.09375 0.585938 1.09375 0.515625 Z M 1.09375 0.515625 "/></g></g></g><g fill="#1d4e56" fill-opacity="1"><g transform="translate(47.09244, 57.719093)"><g><path d="M 0.921875 -2.078125 L 0.921875 0 L 0.375 0 L 0.375 -2.078125 Z M 0.359375 -2.8125 C 0.359375 -2.894531 0.390625 -2.960938 0.453125 -3.015625 C 0.523438 -3.078125 0.597656 -3.109375 0.671875 -3.109375 C 0.753906 -3.109375 0.828125 -3.078125 0.890625 -3.015625 C 0.953125 -2.960938 0.984375 -2.894531 0.984375 -2.8125 C 0.984375 -2.726562 0.953125 -2.660156 0.890625 -2.609375 C 0.828125 -2.554688 0.753906 -2.53125 0.671875 -2.53125 C 0.597656 -2.53125 0.523438 -2.554688 0.453125 -2.609375 C 0.390625 -2.660156 0.359375 -2.726562 0.359375 -2.8125 Z M 0.359375 -2.8125 "/></g></g></g><g fill="#1d4e56" fill-opacity="1"><g transform="translate(48.395843, 57.719093)"><g/></g></g><g fill="#1d4e56" fill-opacity="1"><g transform="translate(49.96385, 57.719093)"><g><path d="M 3.640625 -3.578125 L 3.640625 0.125 L 3.625 0.125 L 1.0625 -2.375 L 1.0625 0 L 0.484375 0 L 0.484375 -3.6875 L 0.515625 -3.6875 L 3.09375 -1.171875 L 3.078125 -3.578125 Z M 3.640625 -3.578125 "/></g></g></g><g fill="#1d4e56" fill-opacity="1"><g transform="translate(54.099467, 57.719093)"><g><path d="M 2.609375 -2.515625 C 2.566406 -2.171875 2.4375 -1.941406 2.21875 -1.828125 C 2.3125 -1.734375 2.382812 -1.617188 2.4375 -1.484375 C 2.488281 -1.359375 2.515625 -1.21875 2.515625 -1.0625 C 2.515625 -0.851562 2.46875 -0.660156 2.375 -0.484375 C 2.28125 -0.316406 2.144531 -0.1875 1.96875 -0.09375 C 1.800781 0 1.601562 0.046875 1.375 0.046875 C 1.144531 0.046875 0.941406 0.00390625 0.765625 -0.078125 C 0.585938 -0.171875 0.445312 -0.300781 0.34375 -0.46875 C 0.25 -0.632812 0.203125 -0.832031 0.203125 -1.0625 C 0.203125 -1.269531 0.25 -1.457031 0.34375 -1.625 C 0.445312 -1.789062 0.585938 -1.921875 0.765625 -2.015625 C 0.941406 -2.117188 1.144531 -2.171875 1.375 -2.171875 C 1.550781 -2.171875 1.710938 -2.140625 1.859375 -2.078125 C 1.953125 -2.085938 2.023438 -2.128906 2.078125 -2.203125 C 2.140625 -2.273438 2.179688 -2.378906 2.203125 -2.515625 Z M 1.359375 -0.390625 C 1.535156 -0.390625 1.679688 -0.453125 1.796875 -0.578125 C 1.910156 -0.703125 1.96875 -0.863281 1.96875 -1.0625 C 1.96875 -1.25 1.910156 -1.40625 1.796875 -1.53125 C 1.679688 -1.65625 1.535156 -1.71875 1.359375 -1.71875 C 1.191406 -1.71875 1.050781 -1.648438 0.9375 -1.515625 C 0.820312 -1.390625 0.765625 -1.238281 0.765625 -1.0625 C 0.765625 -0.875 0.820312 -0.710938 0.9375 -0.578125 C 1.050781 -0.453125 1.191406 -0.390625 1.359375 -0.390625 Z M 1.359375 -0.390625 "/></g></g></g><g fill="#1d4e56" fill-opacity="1"><g transform="translate(56.818981, 57.719093)"><g><path d="M 0.921875 -2.078125 L 0.921875 0 L 0.375 0 L 0.375 -2.078125 Z M 0.359375 -2.8125 C 0.359375 -2.894531 0.390625 -2.960938 0.453125 -3.015625 C 0.523438 -3.078125 0.597656 -3.109375 0.671875 -3.109375 C 0.753906 -3.109375 0.828125 -3.078125 0.890625 -3.015625 C 0.953125 -2.960938 0.984375 -2.894531 0.984375 -2.8125 C 0.984375 -2.726562 0.953125 -2.660156 0.890625 -2.609375 C 0.828125 -2.554688 0.753906 -2.53125 0.671875 -2.53125 C 0.597656 -2.53125 0.523438 -2.554688 0.453125 -2.609375 C 0.390625 -2.660156 0.359375 -2.726562 0.359375 -2.8125 Z M 0.359375 -2.8125 "/></g></g></g></svg>